<svg id="Layer_1" data-name="Layer 1" xmlns="http://www.w3.org/2000/svg" viewBox="0 0 175 247.74"><defs><style>.cls-1{fill:#69bf6e;}.cls-2{fill:#55a05c;}.cls-3{fill:#ffcb37;}</style></defs><path class="cls-1" d="M87.49,0V247.74a86,86,0,0,1-68.82-33.83C8.61,200.7,1.21,183.31.12,160.47-2,115.9,24.52,61.58,48.91,21.67A44.8,44.8,0,0,1,87.49,0Z"/><path class="cls-2" d="M174.88,160.47c-1.11,22.84-8.49,40.23-18.55,53.44a86,86,0,0,1-68.84,33.83V0a44.84,44.84,0,0,1,38.6,21.67C150.48,61.58,177,115.9,174.88,160.47Z"/><circle class="cls-3" cx="87.5" cy="162.67" r="38.8"/></svg>